<?xml version="1.0" encoding="utf-8"?>
<!-- Generator: Adobe Illustrator 25.0.1, SVG Export Plug-In . SVG Version: 6.00 Build 0)  -->
<svg version="1.0" id="Layer_1" xmlns="http://www.w3.org/2000/svg" xmlns:xlink="http://www.w3.org/1999/xlink" x="0px" y="0px"
	 width="458px" height="458px" viewBox="0 0 458 458" enable-background="new 0 0 458 458" xml:space="preserve">
<path d="M182,61.1c0.5,2.3-0.9,4.4-5,6.5c-5.5-3.1-16.9-4.4-26.7-3.5c-10.4,0.9-19.4,4.2-17.9,11.3s11.7,11,29.5,9.5
	c43.6-3.8,43.4-33.3,107.4-39c49.8-4.4,77.8,11,81.8,29.7c3.1,14.7-9.1,28.6-45.2,31.8c-32,2.8-50.7-5.6-52.6-14.6
	c-1-4.5,1.8-11.3,17.2-13.1c1.5,7,10.6,14.4,31.1,12.6c14.8-1.3,27.6-6.6,25.9-14.9c-1.8-8.6-17.7-13.7-42.6-11.5
	c-50.7,4.5-63.2,32.5-106.8,36.3c-30.8,2.7-55.9-8.5-59.4-25.1c-1.3-6.1-1.4-21,31.2-23.9C167,51.7,180.6,54.7,182,61.1L182,61.1z
	 M19.6,235C5.3,253-0.8,273.8,0.4,294.2c1.2,20.4,11.4,37.1,26.9,50.2C44,357.5,62,361.1,82.4,357.5c7.8-1.2,16.7-5.3,24.5-7.8
	c-16.7,0-31-5.3-44.9-16.7c-15.5-11.4-25.7-26.9-28.2-46.1c-3.7-18,0-34.7,10.2-49c11.4-14.3,25.7-22,44.9-24.5
	c19.2-1.2,35.9,3.7,52.6,15.5c-3.7-5.3-9-9-14.3-14.3c-16.7-11.4-34.7-16.7-56.7-11.4C50.6,206.8,33.8,217,19.6,235z M243.2,138.7
	c-53.9,0-101.6-5.3-136.3-13.1c-37.1-9-56.7-19.2-56.7-32.2c0-5.3,2.4-10.2,10.2-15.5c-23.3,9-35.9,16.7-35.9,28.2
	c1.2,13.1,22,25.7,64.5,35.9c40,10.2,91.4,15.5,153,15.5c62.8,0,113-5.3,153-15.5c42.4-10.2,62.8-23.3,62.8-35.9c0-9-9-18-25.7-24.5
	c3.7,2.4,6.5,6.5,6.5,11.4c0,13.1-19.2,23.3-57.9,32.2C344.7,133.4,298.6,138.7,243.2,138.7L243.2,138.7z M396.2,174.6
	c-40,9-91.4,15.5-153,15.5c-62.8,0-114.2-6.5-154.2-15.5c-35.9-9-55.1-19.2-61.6-29.4c6.5,44.9,22,87.3,42.4,124.8
	c15.5,23.3,31,43.7,46.1,65.7c6.5,13.1,11.4,25.7,14.3,38.8c10.2,14.3,24.5,23.3,42.4,28.2c22,7.8,44.9,11.4,68.1,10.2h2.4
	c23.3,1.2,47.7-2.4,70.6-10.2c16.7-5.3,31-14.3,41.2-28.2h1.2c2.4-13.1,6.5-25.7,13.1-38.8c15.5-22,31-42.4,46.1-65.7
	c20.4-37.1,34.7-79.6,42.4-124.8C450,156.6,430.8,166.8,396.2,174.6L396.2,174.6z"/>
</svg>
